<?xml version="1.0" encoding="UTF-8" standalone="no"?>
<!-- Created with Inkscape (http://www.inkscape.org/) -->

<svg
   xmlns:dc="http://purl.org/dc/elements/1.1/"
   xmlns:cc="http://creativecommons.org/ns#"
   xmlns:rdf="http://www.w3.org/1999/02/22-rdf-syntax-ns#"
   xmlns:svg="http://www.w3.org/2000/svg"
   xmlns="http://www.w3.org/2000/svg"
   xmlns:sodipodi="http://sodipodi.sourceforge.net/DTD/sodipodi-0.dtd"
   xmlns:inkscape="http://www.inkscape.org/namespaces/inkscape"
   width="64"
   height="42"
   viewBox="0 0 63.999999 42"
   id="svg2"
   version="1.1"
   inkscape:version="0.91 r13725"
   sodipodi:docname="eye_hover.svg">
  <defs
     id="defs4" />
  <sodipodi:namedview
     id="base"
     pagecolor="#ffffff"
     bordercolor="#666666"
     borderopacity="1.0"
     inkscape:pageopacity="0.0"
     inkscape:pageshadow="2"
     inkscape:zoom="1.979899"
     inkscape:cx="91.087553"
     inkscape:cy="136.6947"
     inkscape:document-units="px"
     inkscape:current-layer="g4179"
     showgrid="false"
     units="px"
     inkscape:window-width="1920"
     inkscape:window-height="1137"
     inkscape:window-x="-8"
     inkscape:window-y="-8"
     inkscape:window-maximized="1" />
  <metadata
     id="metadata7">
    <rdf:RDF>
      <cc:Work
         rdf:about="">
        <dc:format>image/svg+xml</dc:format>
        <dc:type
           rdf:resource="http://purl.org/dc/dcmitype/StillImage" />
        <dc:title></dc:title>
      </cc:Work>
    </rdf:RDF>
  </metadata>
  <g
     inkscape:label="Layer 1"
     inkscape:groupmode="layer"
     id="layer1"
     transform="translate(0,-1010.3622)">
    <g
       id="g4179"
       transform="matrix(0.06865848,0,0,0.06865848,-1.066e-6,999.3622)">
      <g
         id="g4137"
         style="fill:#ffffff;fill-opacity:1"
         transform="matrix(0.96874997,0,0,0.96874997,14.564858,14.564842)">
        <path
           id="path4139"
           d="m 466.075,161.525 c -205.6,0 -382.8,121.2 -464.2,296.1 -2.5,5.3 -2.5,11.5 0,16.9 81.4,174.899 258.601,296.1 464.2,296.1 205.599,0 382.8,-121.2 464.2,-296.1 2.5,-5.3 2.5,-11.5 0,-16.9 -81.4,-174.9 -258.6,-296.1 -464.2,-296.1 z m 0,514.701 c -116.1,0 -210.1,-94.101 -210.1,-210.101 0,-116.1 94.1,-210.1 210.1,-210.1 116.1,0 210.1,94.1 210.1,210.1 0,116 -94.1,210.101 -210.1,210.101 z"
           inkscape:connector-curvature="0"
           style="fill:#ffffff;fill-opacity:1" />
        <circle
           id="circle4141"
           r="134.5"
           cy="466.02499"
           cx="466.07501"
           style="fill:#ffffff;fill-opacity:1" />
      </g>
      <g
         id="g4143" />
      <g
         id="g4145" />
      <g
         id="g4147" />
      <g
         id="g4149" />
      <g
         id="g4151" />
      <g
         id="g4153" />
      <g
         id="g4155" />
      <g
         id="g4157" />
      <g
         id="g4159" />
      <g
         id="g4161" />
      <g
         id="g4163" />
      <g
         id="g4165" />
      <g
         id="g4167" />
      <g
         id="g4169" />
      <g
         id="g4171" />
    </g>
  </g>
</svg>
